<svg width="312" height="312" viewBox="0 0 312 312" fill="none" xmlns="http://www.w3.org/2000/svg">
<circle cx="156" cy="156" r="156" fill="#D6FDE6"/>
<circle cx="156" cy="156" r="131" fill="#AFE9C7"/>
<path d="M201.62 241.216C201.379 234.718 200.967 232.649 200.967 232.223L202.306 232.09C208.063 224.985 223.752 202.957 226.342 196.917C228.575 191.719 219.027 188.584 220.138 182.417C221.117 179.951 225.29 181.491 227.053 181.949C227.834 182.151 229.297 182.719 229.845 181.816C230.418 180.009 230.586 178.099 230.335 176.221C230.46 172.373 230.945 168.544 231.785 164.785C231.994 163.853 232.343 160.454 233.257 159.834L233.95 158.346C237.009 159.765 239.977 161.055 241.607 161.595C251.847 164.935 262.505 166.569 268.477 176.559C277.267 191.238 270.854 207.713 271.533 223.503C271.742 228.376 273.662 231.807 275.863 238.38C277.131 243.846 277.708 249.448 277.58 255.057C277.479 261.805 278.266 271.548 273.9 277.328C269.303 283.41 255.553 279.677 240.647 278.485C209.522 275.989 198.799 280.411 197.238 271.178C196.624 267.539 196.784 258.569 196.504 250.57C196.409 247.899 195.909 243.653 198.443 242.123C199.407 241.556 200.501 241.244 201.62 241.216ZM248.418 231.888C242.659 233.093 237.351 235.87 233.088 239.907C232.675 240.465 232.302 241.051 231.971 241.661L231.994 242.525C239.157 241.994 246.337 243.31 252.839 246.346L252.95 246.122C252.993 246.122 253.277 245.453 253.528 245.368C255.184 244.83 256.903 244.509 258.642 244.413L258.527 242.194C259.714 241.036 260.825 239.804 261.855 238.507C263.938 235.872 265.202 231.157 261.074 232.113L260.581 230.813C257.345 228.461 252.572 230.881 248.777 233.633L248.418 231.888Z" fill="#A1A4B2"/>
<path d="M253.526 246.19L253.42 246.404C251.637 245.515 249.777 244.788 247.864 244.231C248.303 243.644 246.929 244.203 251.246 239.9C253.695 237.061 256.712 234.764 260.104 233.155C260.483 233 260.875 232.88 261.275 232.795C265.218 231.91 264.006 236.386 262.019 238.904C261.036 240.148 259.973 241.327 258.839 242.437L258.948 244.557C257.29 244.648 255.65 244.955 254.071 245.47C253.856 245.55 253.567 246.19 253.526 246.19Z" fill="white"/>
<path d="M261.083 231.317L261.587 232.571C257.397 234.032 253.692 236.507 250.846 239.745C246.226 244.089 247.694 243.525 247.224 244.117C244.82 243.458 242.353 243.02 239.858 242.81L239.928 242.146C239.518 241.672 243.621 238.335 243.961 238.034C248.274 234.235 256.31 228.042 261.083 231.317Z" fill="white"/>
<path d="M248.665 232.681L249.007 234.325C247.36 235.55 245.785 236.868 244.29 238.271C243.978 238.58 240.145 241.853 240.527 242.319L240.462 242.973C237.987 242.761 235.501 242.698 233.018 242.782L232.997 241.961C233.312 241.382 233.668 240.825 234.061 240.295C238.121 236.462 243.178 233.825 248.665 232.681Z" fill="white"/>
<path d="M207.866 200.43C210.956 191.394 212.964 182.026 213.85 172.519L213.693 171.869C216.298 171.524 225.292 159.19 225.152 154.915C227.431 155.032 224.798 154.391 234.141 158.761C233.942 159.489 230.96 163.878 230.537 176.642C230.787 178.521 230.62 180.432 230.049 182.24C229.502 183.144 228.043 182.565 227.265 182.373C225.507 181.915 221.347 180.374 220.37 182.841C219.241 189.135 228.834 192.039 226.555 197.351C223.974 203.395 208.325 225.437 202.593 232.547L201.258 232.681C200.894 229.23 200.419 225.791 199.832 222.371L200.324 222.28C202.791 214.917 205.483 207.732 207.866 200.43Z" fill="#A1A4B2"/>
<path d="M224.695 113.138C225.33 112.806 226.025 112.623 226.733 112.603C227.441 112.583 228.144 112.726 228.796 113.022C229.447 113.317 230.031 113.76 230.507 114.318C230.983 114.876 231.34 115.537 231.555 116.255C232.97 121.234 229.111 125.777 224.996 127.468L223.848 127.281C224.423 122.673 224.633 118.021 224.475 113.375C224.538 113.285 224.582 113.191 224.648 113.101L224.695 113.138Z" fill="white"/>
<path d="M219.357 151.106L218.069 150.139C218.027 149.098 217.914 147.497 217.827 145.872L219.467 145.766C221.067 146.748 222.408 148.117 223.371 149.754C224.334 151.391 224.89 153.246 224.991 155.155C224.176 160.984 216.265 170.581 214.513 171.723C211.547 173.652 206.85 167.021 204.85 164.128C204.331 163.375 203.262 161.373 202.164 161.373L202.119 160.052C208.702 159.205 214.794 156.044 219.357 151.106Z" fill="#E3E5ED"/>
<path d="M217.981 149.945L219.273 150.885C210.664 159.391 199.26 162.802 189.662 155.493C188.198 154.592 186.978 153.349 186.108 151.873L188.118 151.302C188.258 149.751 188.198 148.189 187.94 146.653C187.93 146.366 187.83 146.09 187.653 145.864L187.976 145.273C194.437 148.87 203.127 150.407 209.326 147.574C212.44 146.119 215.147 143.928 217.209 141.192L217.561 141.477C217.526 143.287 217.894 147.943 217.981 149.945Z" fill="white"/>
<path d="M214.529 171.955L214.698 172.608C214.536 173.652 214.431 174.704 214.384 175.758C213.194 184.222 211.128 192.561 208.215 200.659C207.751 192.492 206.615 184.369 204.815 176.362C204.737 176.036 204.79 175.176 204.575 175.425L204.406 175.098C204.767 174.937 205.094 174.715 205.369 174.444C206.526 172.866 207.276 171.063 207.563 169.174L208.649 168.638C209.468 169.486 210.381 170.253 211.372 170.925C211.798 171.283 212.296 171.558 212.838 171.735C213.381 171.912 213.955 171.987 214.529 171.955Z" fill="#E3E5ED"/>
<path d="M205.286 174.259C205.526 174.123 205.746 173.955 205.94 173.759C207.012 172.17 207.708 170.354 207.974 168.451L208.981 167.911C202.144 160.069 204.331 157.14 197.402 166.381L197.893 166.763C198.084 169.003 198.496 171.219 199.122 173.377C199.401 173.929 199.852 174.374 200.407 174.641C198.092 181.341 196.617 188.306 196.016 195.373L195.257 195.531C197.023 204.506 199.034 213.391 200.509 222.388L201.002 222.296C203.481 214.829 206.208 207.563 208.579 200.165C208.045 191.467 206.945 182.813 205.286 174.259Z" fill="#DB5461"/>
<path d="M186.142 152.186C187.015 153.635 188.24 154.855 189.709 155.739C193.253 158.379 197.609 159.781 202.074 159.721L202.119 160.981H202.048C200.939 161.069 199.924 162.622 199.321 163.35C197.272 165.832 195.729 168.04 193.583 170.327C193.255 170.783 192.837 171.171 192.354 171.47C191.871 171.769 191.333 171.973 190.769 172.069C189.948 171.871 189.177 171.516 188.499 171.025C187.822 170.533 187.254 169.914 186.826 169.205C184.683 166.4 182.743 163.453 181.02 160.386C179.966 159.091 179.347 157.513 179.247 155.865C179.505 154.946 179.87 154.057 180.333 153.216C181.305 150.794 183.302 146.154 186.937 147.014L187.977 147.036C188.244 148.543 188.304 150.078 188.156 151.6L186.142 152.186Z" fill="#E3E5ED"/>
<path d="M202.119 241.635C201.271 241.614 200.43 241.797 199.669 242.169C198.908 242.54 198.249 243.09 197.749 243.77C196.489 243.205 195.062 243.124 193.745 243.546C192.429 243.967 191.317 244.859 190.626 246.048C188.696 244.628 186.503 243.599 184.172 243.022C179.711 241.328 175.102 240.048 170.404 239.198C169.06 238.96 164.887 238.016 164.041 239.754C163.097 241.687 167.267 244.489 168.453 245.358C174.018 250.028 181.062 252.603 188.348 252.632C187.564 257.794 186.578 265.689 189.58 269.07C191.438 270.614 193.699 271.601 196.1 271.918L197.713 271.628C197.805 272.206 197.959 272.772 198.172 273.317C187.486 274.854 166.637 280.126 155.928 281.415C149.834 282.15 142.531 282.352 137.132 278.879C125.393 271.329 132.215 243.627 130.815 221.926C129.746 205.328 122.869 185.431 134.263 170.789C142.655 160.01 153.886 165.048 166.326 159.489L166.549 160C166.595 160 167.267 160.911 167.309 160.957C170.676 164.908 172.762 169.777 173.292 174.925C173.423 176.526 172.603 180.132 174.056 181.398C176.678 183.702 182.998 177.252 185.46 180.842C187.656 184.054 175.75 190.221 177.327 196.746C178.389 201.15 183.014 205.289 185.502 209.071C190.629 216.859 195.248 224.953 200.09 232.894L201.476 232.76C201.812 235.709 202.026 238.669 202.119 241.635Z" fill="#A1A4B2"/>
<path d="M199.832 174.81C199.722 175.295 199.558 175.765 199.341 176.21C198.714 177.939 197.717 182.032 197.609 182.405C196.483 186.834 195.747 191.358 195.41 195.924L194.656 196.085C193.756 192.133 192.132 181.435 191.924 180.112C191.23 177.676 190.814 175.165 190.683 172.63L190.725 172.295C191.29 172.192 191.83 171.975 192.314 171.657C192.798 171.338 193.216 170.924 193.545 170.438C194.702 169.128 195.744 167.751 196.794 166.351L197.281 166.741C197.481 169.025 197.89 171.285 198.503 173.49C198.787 174.073 199.256 174.539 199.832 174.81Z" fill="#E3E5ED"/>
<path d="M197.521 271.275L195.895 271.564C193.474 271.248 191.194 270.262 189.321 268.721C185.831 264.822 187.616 254.923 188.508 249.825C188.781 248.336 189.417 246.933 190.362 245.738C191.059 244.551 192.18 243.66 193.507 243.24C194.835 242.819 196.274 242.899 197.545 243.464C196.638 245.759 196.373 248.25 196.778 250.68C197.098 259.679 196.883 267.87 197.521 271.275Z" fill="#E3E5ED"/>
<path d="M223.478 92.7229C222.375 92.8383 221.273 92.8416 220.351 92.9042C215.071 93.3594 209.754 93.0708 204.554 92.0469C202.724 91.6512 200.144 89.5705 198.343 89.7387C197.027 89.8541 195.951 92.2777 195.052 93.0757C193.34 94.5511 191.238 95.4982 189 95.8027C184.224 96.3432 179.388 95.8667 174.808 94.4046C174.361 104.842 175.016 115.297 176.763 125.596C177.223 131.178 179.269 136.513 182.658 140.968C189.852 148.417 202.569 151.191 210.122 147.705C215.674 144.762 220.021 139.962 222.405 134.139C226.707 123.709 224.594 104.112 223.478 92.7229Z" fill="white"/>
<path d="M200.956 232.406C199.268 219.187 196.931 206.063 193.955 193.084C189.937 171.769 190.631 172.749 190.545 172.227C189.735 172.022 188.974 171.653 188.305 171.143C187.637 170.633 187.076 169.992 186.654 169.257C184.538 166.347 182.623 163.291 180.924 160.109C179.884 158.766 179.273 157.13 179.173 155.421C179.371 154.574 179.688 153.761 180.114 153.006L179.634 152.627C175.852 154.235 171.149 157.005 166.667 158.992L166.884 159.505C166.929 159.505 167.585 160.419 167.626 160.465C170.907 164.435 172.942 169.321 173.465 174.487C173.577 176.095 172.787 179.715 174.211 180.986C176.771 183.309 182.958 176.81 185.342 180.427C187.476 183.599 175.878 189.96 177.404 196.393C178.431 200.817 182.958 204.969 185.384 208.766C190.391 216.58 194.896 224.709 199.622 232.681L200.975 232.547C200.975 232.494 200.956 232.449 200.956 232.406Z" fill="#A1A4B2"/>
<path d="M190.683 245.624C189.334 247.535 188.561 249.789 188.454 252.122L187.561 251.991C180.712 251.781 174.129 249.301 168.856 244.943C167.688 244.085 163.586 241.32 164.515 239.411C165.347 237.696 169.453 238.628 170.775 238.862C175.397 239.701 179.931 240.965 184.32 242.637C186.618 243.203 188.781 244.218 190.683 245.624Z" fill="white"/>
<path d="M176.959 129.479L175.804 129.755C173.641 129.312 171.679 128.08 170.234 126.261C168.789 124.441 167.946 122.14 167.842 119.73C167.424 115.597 171.249 112.62 173.871 114.154C174.144 115.062 174.58 115.901 175.152 116.622C175.519 120.943 176.122 125.237 176.959 129.479Z" fill="white"/>
<path d="M232.44 84.924C231.144 82.6681 228.942 81.6546 227.581 79.5393C225.035 75.616 223.597 72.2092 218.972 70.3097C210.551 66.7787 199.778 68.0767 190.946 69.1262C188.264 69.6562 185.521 69.7993 182.8 69.5512C181.005 69.2243 178.57 67.9655 176.866 69.0575C175.57 69.8651 175.029 71.5619 173.854 72.546C171.687 74.3769 168.963 74.9131 167.104 77.2147C160.25 85.7152 163.36 102.183 169.782 111.426C170.32 112.458 171.049 113.376 171.93 114.13L171.952 114.486C172.677 114.401 173.411 114.542 174.055 114.888C173.739 113.968 173.635 112.986 173.75 112.019C173.865 111.052 174.196 110.123 174.719 109.304C173.938 96.8215 174.647 95.3731 174.654 95.0462C179.161 96.4947 183.92 96.9671 188.62 96.4324C190.822 96.1305 192.891 95.1914 194.576 93.7286C195.474 92.9374 196.546 90.5344 197.815 90.4199C199.587 90.2663 202.126 92.3293 203.927 92.7085C209.05 93.7252 214.289 94.0114 219.49 93.5586C220.397 93.4965 221.482 93.4932 222.567 93.3788C222.966 97.4819 223.377 101.99 223.672 106.074C224.379 106.987 224.835 108.073 224.995 109.22C225.154 110.368 225.012 111.538 224.582 112.613L228.699 112.525C232.838 105.662 236.352 91.9402 232.44 84.924Z" fill="#096B72"/>
<path d="M201.066 127.022C201.473 126.864 201.801 126.549 201.978 126.146C202.155 125.744 202.166 125.287 202.009 124.876C201.852 124.465 201.54 124.134 201.141 123.956C200.743 123.777 200.29 123.766 199.883 123.924C199.253 124.177 198.56 124.225 197.901 124.062C197.243 123.898 196.651 123.531 196.209 123.012C196.14 122.726 195.996 122.465 195.793 122.254C195.591 122.043 195.336 121.89 195.055 121.811C194.775 121.732 194.479 121.73 194.197 121.804C193.915 121.879 193.658 122.028 193.452 122.236C191.422 124.289 196.16 128.916 201.066 127.022Z" fill="#096B72"/>
<path d="M192.154 133.09L192.726 133.476C195.382 135.071 198.448 135.737 201.484 135.379C204.52 135.021 207.371 133.657 209.63 131.482C209.928 131.186 210.104 130.779 210.123 130.348C210.141 129.916 210 129.494 209.729 129.171C209.458 128.848 209.079 128.649 208.671 128.617C208.264 128.584 207.861 128.72 207.547 128.997C206.229 130.24 204.667 131.159 202.973 131.687C201.279 132.215 199.495 132.339 197.75 132.05C194.41 131.499 192.999 128.668 191.286 130.123C191.035 130.331 190.85 130.614 190.755 130.935C190.659 131.257 190.659 131.601 190.753 131.923C190.847 132.245 191.031 132.529 191.281 132.737C191.532 132.946 191.836 133.069 192.154 133.09Z" fill="#096B72"/>
<path d="M203.074 137.962C201.882 138.586 200.543 138.807 199.232 138.595C198.893 138.382 198.504 138.276 198.112 138.289C197.719 138.302 197.338 138.433 197.012 138.668C196.773 138.882 196.594 139.162 196.493 139.478C196.392 139.793 196.374 140.133 196.44 140.459C196.505 140.785 196.653 141.086 196.867 141.328C197.08 141.571 197.351 141.745 197.651 141.834C198.787 142.249 199.99 142.409 201.186 142.304C202.382 142.2 203.545 141.833 204.604 141.227C204.805 141.12 204.984 140.971 205.132 140.789C205.279 140.608 205.391 140.396 205.462 140.168C205.533 139.939 205.562 139.697 205.545 139.457C205.529 139.216 205.469 138.981 205.368 138.766C205.267 138.551 205.127 138.359 204.957 138.202C204.787 138.045 204.59 137.925 204.377 137.851C204.163 137.776 203.938 137.747 203.715 137.767C203.491 137.786 203.273 137.852 203.074 137.962Z" fill="#096B72"/>
<path d="M186.005 114.888C188.237 114.888 189.505 109.636 187.082 107.304C186.742 107.022 186.337 106.874 185.923 106.883C185.51 106.892 185.11 107.056 184.778 107.353C183.655 108.365 183.736 110.445 183.954 112.136C184.148 113.61 184.778 114.888 186.005 114.888Z" fill="#096B72"/>
<path d="M212.829 105.834C211.471 105.392 210.124 106.504 210.124 108.992C210.124 111.005 210.436 113.496 212.067 113.742C212.56 113.768 213.046 113.592 213.449 113.241C213.851 112.89 214.146 112.385 214.287 111.805C214.725 110.773 214.817 109.573 214.545 108.458C214.273 107.344 213.657 106.403 212.829 105.834Z" fill="#096B72"/>
<path d="M129.723 221.586C130.92 245.431 124.28 271.713 136.771 279.772C149.263 287.831 171.336 278.763 197.608 274.636C200.272 279.154 207.337 279.134 212.675 279.037C219.103 278.975 232.058 279.362 241.395 280.094C256.649 281.33 270.847 285.297 276.127 278.292C276.256 278.121 276.35 277.927 276.403 277.72C276.456 277.513 276.468 277.298 276.438 277.086C276.407 276.875 276.335 276.671 276.226 276.488C276.117 276.304 275.972 276.143 275.8 276.015C275.628 275.887 275.433 275.794 275.225 275.741C275.017 275.688 274.801 275.676 274.588 275.706C274.376 275.737 274.171 275.808 273.987 275.917C273.802 276.026 273.64 276.17 273.512 276.341C272.362 277.41 270.986 278.209 269.484 278.678C267.982 279.146 266.393 279.272 264.835 279.046C260.045 278.928 255.267 278.522 250.526 277.83C238.948 276.465 227.299 275.78 215.641 275.778C211.208 275.703 205.98 276.243 202.168 274.552C198.294 272.906 199.648 267.039 198.961 250.485C198.614 248.35 198.803 246.162 199.51 244.117C201.321 240.94 212.031 244.39 216.232 244.586C233.026 245.236 243.693 240.358 259.65 251.835C259.824 251.962 260.022 252.053 260.231 252.103C260.441 252.154 260.659 252.163 260.872 252.129C261.085 252.096 261.289 252.021 261.473 251.908C261.656 251.796 261.816 251.648 261.942 251.474C262.068 251.3 262.158 251.103 262.208 250.894C262.257 250.685 262.264 250.469 262.229 250.257C262.194 250.046 262.117 249.843 262.002 249.661C261.888 249.479 261.739 249.321 261.563 249.197C260.124 248.163 258.621 247.223 257.077 246.329C259.552 245.934 262.064 245.825 264.564 246.004C264.78 246.021 264.997 245.994 265.202 245.925C265.407 245.856 265.596 245.746 265.756 245.602C265.917 245.459 266.047 245.283 266.138 245.088C266.228 244.892 266.278 244.68 266.283 244.465C266.306 244.035 266.155 243.613 265.865 243.293C265.576 242.973 265.17 242.78 264.737 242.758C263.524 242.689 262.298 242.732 261.076 242.758C262.12 241.712 263.11 240.614 264.041 239.466C265.525 237.577 267.215 233.938 265.787 231.729C265.483 231.287 265.071 230.928 264.591 230.685C264.11 230.443 263.576 230.326 263.037 230.344C262.952 229.983 262.742 229.664 262.445 229.44C259.631 227.391 255.809 227.814 251.059 230.695C250.881 230.482 250.652 230.318 250.393 230.218C250.134 230.118 249.853 230.085 249.578 230.123C243.174 231.302 237.272 234.36 232.63 238.904C232.158 239.543 231.737 240.218 231.372 240.923C218.583 241.382 218.112 241.863 211.521 240.572C209.047 240.026 206.533 239.68 204.002 239.538C203.904 237.545 203.755 235.555 203.558 233.57C203.887 233.495 204.183 233.316 204.401 233.06C210.393 225.67 226.056 203.63 228.698 197.47C231.424 191.112 221.832 187.583 222.503 182.916C222.725 182.363 224.167 182.471 226.805 183.241L227.786 183.518C228.747 183.794 231.002 184.438 232.085 182.591C232.875 180.546 233.129 178.334 232.823 176.165C232.957 172.118 233.483 168.094 234.393 164.147C234.528 163.064 234.786 161.999 235.161 160.973C235.508 160.714 235.737 160.329 235.798 159.902C235.86 159.475 235.748 159.042 235.488 158.697C235.228 158.352 234.84 158.124 234.411 158.063C233.982 158.002 233.546 158.113 233.199 158.371C231.98 159.201 231.565 161.152 231.172 163.621C230.228 167.702 229.688 171.865 229.561 176.051C229.674 177.558 229.633 179.072 229.44 180.571C227.446 180.214 221.205 177.319 219.374 182.035C218.086 189.148 227.341 192.345 225.69 196.198C223.402 201.568 209.713 220.984 203.103 229.456C202.829 227.181 202.502 224.912 202.122 222.652C202.211 222.529 202.338 222.444 202.391 222.295C208.733 203.431 213.195 194.211 215.768 175.186C215.808 174.246 215.895 173.31 216.03 172.379C218.125 171.019 226.618 161.207 227.364 154.992C228.057 151.034 223.029 143.665 220.025 143.863C219.969 142.848 219.933 141.912 219.946 141.235C219.939 141.147 219.924 141.06 219.9 140.975C222.746 137.418 224.634 133.198 225.386 128.714C225.551 128.709 225.714 128.68 225.87 128.626C230.966 126.675 235.439 121.471 233.683 115.725C233.322 114.517 232.617 113.439 231.652 112.623C230.688 111.807 229.506 111.287 228.25 111.126C226.88 110.875 227.426 111.555 227.432 109.825C227.402 108.2 226.901 106.619 225.987 105.272C225.693 101.32 225.334 97.642 225.049 94.5394C225.841 94.3728 226.61 94.1107 227.338 93.7588C227.531 93.6642 227.704 93.5323 227.846 93.3709C227.988 93.2095 228.097 93.0217 228.166 92.8183C228.235 92.6149 228.262 92.3999 228.247 92.1859C228.232 91.9718 228.175 91.7628 228.078 91.5709C227.981 91.3791 227.848 91.2081 227.684 91.068C227.521 90.9278 227.331 90.8212 227.126 90.7543C226.921 90.6874 226.705 90.6616 226.49 90.6782C226.275 90.6949 226.065 90.7537 225.873 90.8513C225.009 91.2673 224.069 91.5062 223.111 91.5538C217.022 92.2756 210.859 92.0628 204.836 90.9229C204.104 90.6908 203.398 90.3834 202.731 90.0057C197.984 87.6023 196.803 88.3796 194.656 91.3554C194.441 91.6715 194.207 91.9746 193.956 92.2628C192.488 93.5043 190.698 94.3081 188.791 94.5817C184.262 95.1448 179.663 94.6891 175.335 93.2482C173.887 92.8982 172.505 92.3219 171.238 91.5408C171.079 91.3975 170.893 91.2869 170.69 91.2152C170.488 91.1435 170.273 91.1123 170.058 91.1231C169.844 91.134 169.633 91.1868 169.439 91.2786C169.245 91.3703 169.071 91.4992 168.927 91.6579C168.783 91.8166 168.672 92.0019 168.6 92.2033C168.528 92.4047 168.496 92.6183 168.507 92.8318C168.518 93.0453 168.571 93.2546 168.664 93.4477C168.756 93.6408 168.885 93.8139 169.045 93.9572C170.251 94.8758 171.632 95.5398 173.105 95.9086C172.941 100.179 173.012 104.456 173.318 108.719C172.655 109.894 172.309 111.22 172.314 112.567C170.519 112.754 168.872 113.642 167.735 115.037C166.599 116.432 166.065 118.219 166.253 120.005C166.373 122.699 167.409 125.273 169.19 127.307C170.972 129.34 173.394 130.712 176.06 131.199C176.152 131.215 176.245 131.224 176.338 131.225C177.191 135.133 178.971 138.782 181.53 141.866C182.624 142.965 183.814 143.964 185.087 144.852C182.903 145.431 181.043 147.6 179.529 151.255C177.568 151.838 170.768 155.617 166.093 157.636C154.245 162.944 142.421 157.919 133.499 169.419C121.671 184.624 128.458 205.376 129.723 221.586ZM261.471 237.453C260.48 238.697 259.412 239.879 258.274 240.992C258.026 241.243 257.867 241.568 257.821 241.916C257.774 242.265 257.842 242.62 258.016 242.927C256.599 243.041 255.202 243.335 253.861 243.802C253.588 243.904 253.341 244.065 253.138 244.273C252.157 243.828 251.134 243.431 250.108 243.076C250.784 242.309 251.719 241.48 252.687 240.569C255.255 237.464 258.591 235.078 262.367 233.645C262.789 233.544 263.021 233.554 263.073 233.528C263.002 234.977 262.441 236.36 261.481 237.453H261.471ZM259.039 231.508C255.57 233.344 252.468 235.795 249.885 238.741C248.711 239.707 247.692 240.844 246.861 242.114C245.653 241.755 244.413 241.517 243.157 241.402C246.511 238.006 254.354 230.776 259.049 231.508H259.039ZM245.913 234.468C245.076 235.177 244.236 235.918 243.373 236.744C241.811 237.945 240.448 239.382 239.332 241.002C237.989 240.917 236.648 240.871 235.301 240.868C238.327 237.986 241.953 235.8 245.923 234.468H245.913ZM187.369 250.404C180.941 250.088 174.792 247.7 169.849 243.6C168.33 242.684 166.992 241.501 165.9 240.107C167.443 239.829 169.03 239.912 170.536 240.351C175.197 241.219 179.772 242.496 184.207 244.166C185.844 244.529 187.398 245.198 188.784 246.137C188.039 247.455 187.561 248.906 187.378 250.407L187.369 250.404ZM190.337 252.44C190.417 250.269 191.136 248.169 192.403 246.4C192.752 245.786 193.264 245.279 193.884 244.935C194.503 244.591 195.205 244.423 195.914 244.449C195.3 246.986 195.725 247.948 195.859 258.395C195.911 262.476 195.953 266.688 196.271 269.751C194.41 269.454 192.658 268.687 191.18 267.524C188.519 264.499 189.82 255.718 190.347 252.443L190.337 252.44ZM201.017 216.34C200.213 212.03 196.251 192.709 196.251 192.709C195.417 188.4 195.081 186.035 193.763 178.435C193.239 176.811 192.927 175.126 192.835 173.423C193.785 173.03 194.606 172.383 195.208 171.553C197.951 168.558 201.678 163.178 202.557 162.518C203.489 163.36 208.2 171.667 212.692 172.756C210.812 189.788 206.987 199.34 201.027 216.366L201.017 216.34ZM190.151 151.295C190.26 150.079 190.247 148.855 190.111 147.642C193.962 149.411 198.143 150.357 202.384 150.42C205.067 150.508 207.739 150.032 210.225 149.023C212.711 148.015 214.955 146.496 216.811 144.566L217.138 149.828C217.161 150.19 217.307 150.535 217.553 150.803C213.445 154.7 208.182 157.174 202.547 157.858C198.357 157.916 194.272 156.552 190.965 153.991C190.328 153.596 189.742 153.124 189.222 152.586C189.473 152.471 189.691 152.295 189.855 152.073C190.019 151.852 190.124 151.593 190.16 151.321L190.151 151.295ZM224.15 154.498C223.536 159.611 215.873 168.629 214.189 169.696C211.306 169.897 206.271 161.861 205.333 160.765C211.766 159.208 217.595 155.798 222.091 150.963C222.356 150.669 222.505 150.288 222.509 149.893C223.474 151.254 224.045 152.853 224.16 154.514L224.15 154.498ZM222.81 106.478C222.937 108.531 223.039 110.638 223.088 112.785C217.618 119.507 205.83 116.284 205.333 110.248C204.921 105.932 209.991 103.252 214.813 103.142C216.31 103.088 217.8 103.358 219.181 103.935C220.562 104.511 221.8 105.379 222.81 106.478ZM230.581 116.655C230.872 118.37 230.569 120.133 229.721 121.654C228.872 123.175 227.53 124.364 225.912 125.026C226.303 121.476 226.459 117.903 226.38 114.333C227.245 114.135 228.153 114.263 228.929 114.692C229.706 115.121 230.295 115.82 230.584 116.655H230.581ZM185.008 98.0616C189.011 98.4072 192.993 97.2013 196.123 94.6955C196.579 94.2546 196.983 93.7649 197.33 93.2352C197.663 92.7313 198.039 92.2568 198.454 91.8172C199.481 91.6969 202.315 93.6873 204.162 94.0938C209.986 95.1343 215.921 95.4066 221.816 94.9036C222.012 96.9558 222.248 99.421 222.47 102.081C221.506 101.481 220.472 101.002 219.39 100.654C219.637 100.536 219.85 100.359 220.01 100.139C220.171 99.9183 220.273 99.6613 220.307 99.3914C220.342 99.1216 220.307 98.8474 220.208 98.594C220.108 98.3407 219.946 98.1162 219.737 97.9412C218.617 97.0247 217.302 96.3729 215.892 96.0349C214.482 95.6969 213.013 95.6815 211.597 95.9899C210.969 96.1232 207.788 96.8127 207.229 98.2665C207.066 98.6411 207.047 99.0625 207.177 99.4497C207.307 99.837 207.577 100.163 207.933 100.364C208.29 100.566 208.71 100.63 209.11 100.542C209.511 100.455 209.866 100.224 210.106 99.8926C211.185 99.2951 212.406 98.9999 213.641 99.0382C214.875 99.0766 216.076 99.4472 217.115 100.111C209.177 98.9527 203.057 103.447 202.188 108.472C201.331 108.252 200.44 108.202 199.564 108.326C198.688 108.45 197.845 108.745 197.085 109.194L197.032 109.223C194.486 103.438 186.264 101.255 180.379 103.151C180.405 103.119 180.448 103.106 180.474 103.067C181.899 101.05 186.11 101.246 188.51 102.016C188.715 102.089 188.934 102.12 189.152 102.107C189.37 102.094 189.583 102.038 189.779 101.942C189.975 101.845 190.149 101.711 190.292 101.547C190.435 101.382 190.543 101.191 190.61 100.984C190.678 100.778 190.702 100.56 190.684 100.343C190.665 100.127 190.603 99.9164 190.501 99.7243C190.399 99.5321 190.259 99.3623 190.09 99.2247C189.921 99.0872 189.726 98.9847 189.516 98.9234C186.201 97.8599 180.363 97.5868 177.8 101.2C177.633 101.427 177.53 101.695 177.502 101.975C177.474 102.255 177.522 102.537 177.64 102.793C177.758 103.048 177.943 103.268 178.175 103.429C178.407 103.589 178.678 103.686 178.96 103.707C178.059 104.122 177.207 104.636 176.42 105.239C176.298 102.445 176.257 99.6482 176.299 96.8517C179.135 97.6458 182.066 98.0528 185.012 98.0616H185.008ZM177.25 116.134C177.016 113.942 176.824 111.745 176.675 109.545C182.193 102.667 194.567 106.205 194.515 112.472C194.518 118.505 183.351 122.132 177.254 116.134H177.25ZM169.535 119.735C169.267 117.354 171.431 115.393 173.131 115.832C173.395 116.421 173.724 116.978 174.112 117.494C174.434 120.921 174.94 124.329 175.629 127.703C173.913 127.16 172.407 126.103 171.317 124.677C170.227 123.251 169.606 121.525 169.538 119.735H169.535ZM179.205 128.987C178.596 126.191 178.108 123.37 177.744 120.531C186.179 125.39 197.637 120.32 197.768 112.619C197.826 112.562 197.879 112.501 197.928 112.437C198.515 111.949 199.231 111.639 199.99 111.543C200.749 111.447 201.52 111.57 202.211 111.897C202.264 111.916 202.319 111.933 202.374 111.945C204.336 119.146 215.811 122.525 223.098 117.276C222.983 126.73 222.257 133.001 216.683 139.918C214.761 142.47 212.243 144.518 209.347 145.886C202.037 149.233 190.174 146.023 183.982 139.707C181.439 136.633 179.788 132.926 179.209 128.987H179.205ZM182.177 153.379C183.694 149.447 185.237 147.636 186.878 147.987C186.932 148.527 186.959 149.07 186.957 149.613C186.664 149.43 186.319 149.345 185.974 149.37C185.629 149.396 185.302 149.532 185.04 149.757C184.778 149.982 184.596 150.285 184.52 150.621C184.444 150.957 184.479 151.308 184.619 151.623C185.589 153.708 187.148 155.467 189.105 156.687C192.166 158.994 195.787 160.452 199.599 160.915C198.379 162.307 195.303 166.632 192.681 169.533C192.313 170.061 191.768 170.443 191.145 170.61C190.056 170.14 189.141 169.344 188.529 168.333C186.365 165.422 184.399 162.37 182.645 159.198C181.839 158.188 181.346 156.968 181.226 155.685C181.486 154.895 181.805 154.125 182.18 153.382L182.177 153.379ZM177.927 155.506C177.975 157.497 178.663 159.421 179.889 160.996C181.634 164.184 183.6 167.248 185.773 170.164C186.682 171.589 187.988 172.719 189.533 173.416C189.617 175.383 189.967 177.329 190.572 179.202C194.705 204.02 197.575 212.931 199.622 227.986C195.257 220.701 191.341 214.024 187.235 207.783C184.737 203.975 180.239 199.919 179.297 195.974C178.509 192.722 182.439 189.385 184.773 186.542L185.1 186.162C186.829 184.211 188.673 181.755 187.179 179.54C185.119 176.5 181.621 177.914 179.078 178.939C177.921 179.407 175.989 180.194 175.524 179.781C174.187 178.613 178.14 171.413 169.159 159.783C173.118 157.965 174.687 157.061 177.934 155.509L177.927 155.506ZM136.082 171.39C143.696 161.578 154.121 165.891 166.103 161.113C169.434 164.91 171.519 169.63 172.079 174.639C172.193 176.23 171.189 180.298 173.386 182.214C175.348 183.954 177.996 182.887 180.327 181.947C182.805 180.955 183.998 180.623 184.472 181.297C184.515 181.823 183.557 182.942 182.275 184.461C179.66 187.57 174.897 191.587 176.142 196.706C177.306 201.584 182.063 205.812 184.521 209.539C189.595 217.25 194.244 225.42 199.036 233.281C199.175 233.504 199.367 233.691 199.595 233.823C199.823 233.956 200.08 234.031 200.344 234.042C200.527 236.009 200.671 237.944 200.759 239.788C199.551 239.99 198.431 240.546 197.542 241.385C196.306 241.066 195.005 241.084 193.778 241.439C192.551 241.794 191.444 242.472 190.572 243.402C188.929 242.272 187.082 241.468 185.132 241.034C179.764 239.005 174.19 237.56 168.509 236.725C169.03 233.701 168.337 230.595 166.58 228.074C163.036 221.374 164.118 217.621 162.706 210.775C162.67 210.559 162.591 210.352 162.474 210.167C162.356 209.982 162.202 209.823 162.021 209.699C161.839 209.574 161.635 209.488 161.419 209.444C161.203 209.4 160.981 209.4 160.765 209.444C160.55 209.488 160.345 209.575 160.164 209.699C159.983 209.823 159.829 209.983 159.711 210.168C159.594 210.353 159.515 210.56 159.479 210.776C159.444 210.992 159.453 211.213 159.505 211.425C160.852 217.985 159.832 222.311 163.69 229.586C165.279 232.585 166.188 234.559 164.962 236.988C164.561 237.125 164.188 237.331 163.86 237.596C161.245 236.526 158.578 235.585 155.87 234.777C153.944 234.39 151.274 233.908 150.898 235.827C150.847 236.106 150.869 236.394 150.962 236.662C151.055 236.931 151.217 237.17 151.43 237.359C151.644 237.547 151.902 237.677 152.181 237.737C152.46 237.797 152.75 237.784 153.023 237.7C155.635 238.021 158.182 238.736 160.578 239.821C155.257 241.546 150.461 244.582 146.638 248.648C146.364 248.967 146.225 249.379 146.249 249.797C146.274 250.216 146.46 250.609 146.769 250.895C147.078 251.18 147.485 251.336 147.907 251.329C148.328 251.322 148.731 251.154 149.031 250.859C152.957 246.666 158.013 243.685 163.595 242.273C164.739 243.73 166.111 244.994 167.659 246.017C173.115 250.489 179.836 253.161 186.888 253.663C186.045 259.884 185.796 266.346 188.925 269.849C190.109 270.825 191.444 271.604 192.877 272.158C168.522 276.711 148.648 283.541 138.556 277.037C132.266 272.978 132.299 261.77 132.309 254.352C132.309 240.143 133.793 237.271 132.995 221.371C131.694 204.83 125.198 185.401 136.091 171.393L136.082 171.39Z" fill="#096B72"/>
<path d="M172.903 273.143C167.183 277.006 160.492 279.183 153.593 279.426C139.535 280.844 122.654 277.393 108.691 278.678L108.271 277.745C123.925 270.755 131.058 264.763 147.71 259.46C149.63 258.849 152.445 258.22 153.569 256.331C155.278 253.434 151.222 250.577 148.947 249.839C148.636 249.743 148.324 249.649 148.011 249.559L150.604 249.535C149.444 244.102 149.349 238.496 150.324 233.027C151.8 229.85 153.525 226.799 155.486 223.898C158.021 218.682 158.94 212.828 158.124 207.086C156.613 196.153 148.557 188.148 146.774 177.151C145.96 174.371 145.706 171.457 146.026 168.579L146.145 166.758C152.012 167.229 157.717 168.897 162.91 171.664C166.128 173.906 168.844 176.793 170.886 180.141C172.928 183.49 174.252 187.226 174.772 191.114C177.642 205.149 173.993 218.944 175.425 232.959C176.764 245.986 184.492 263.697 172.903 273.143Z" fill="white"/>
<path d="M93.9045 162.396C93.7508 160.688 93.5389 158.98 93.2758 157.271C102.725 159.672 112.685 159.085 121.786 155.591C122.128 155.591 121.619 155.348 122.47 160.715C126.725 162.66 131.16 164.185 135.712 165.269C139.05 165.874 142.599 166.25 146.149 166.738L146.029 168.559C145.709 171.438 145.964 174.352 146.778 177.131C148.575 188.129 156.617 196.12 158.127 207.066C158.943 212.807 158.024 218.66 155.49 223.875C153.529 226.778 151.803 229.831 150.327 233.008C149.354 238.474 149.446 244.084 150.608 249.516L148.014 249.54C141.643 247.832 134.123 249.335 127.724 249.882C109.699 251.371 96.8768 250.848 80.0644 257.329C75.179 246.249 71.3183 234.744 68.5304 222.96L69.6988 222.618C76.0022 210.804 75.0114 196.448 70.4231 184.012C69.2783 180.825 67.789 177.772 65.9817 174.907C65.4077 174.012 63.4125 172.406 63.2041 171.45L63.1802 171.006C71.0489 171.046 78.8162 169.231 85.8519 165.707C85.9304 165.666 91.6599 162.632 91.7384 162.632L93.9045 162.393V162.396Z" fill="#E3655B"/>
<path d="M80.0794 257.337C96.8986 250.845 109.741 251.375 127.739 249.889C134.688 249.315 142.194 247.647 148.966 249.841C151.241 250.579 155.313 253.435 153.588 256.332C152.464 258.221 149.649 258.85 147.729 259.462C132.741 264.245 123.704 270.456 108.289 277.746C101.664 280.569 94.833 282.879 87.8552 284.658C80.2707 286.845 72.529 292.02 65.8361 285.546C59.5225 279.434 56.4033 270.575 53.3216 262.567C47.7828 247.445 43.1207 232.015 39.3585 216.356C35.8429 202.513 32.3035 191.593 41.9482 179.742C47.7562 172.625 55.2724 171.645 63.1986 171.009L63.2225 171.453C63.4309 172.41 65.4261 174.016 66.0001 174.911C67.8074 177.774 69.297 180.828 70.4415 184.016C75.0298 196.469 76.0206 210.825 69.7172 222.639L68.5488 222.981C71.3336 234.761 75.1933 246.261 80.0794 257.337Z" fill="white"/>
<path d="M75.6356 110.24C76.1925 115.023 75.9124 110.541 76.9647 120.558L76.3121 120.633C72.6906 118.532 67.296 122.57 67.0876 126.26C66.746 132.539 72.9708 134.876 78.2014 134.852L79.3015 134.511C80.1749 137.933 81.8053 141.115 84.0723 143.823C86.3393 146.531 89.1852 148.696 92.4002 150.158L91.8399 151.279C90.1317 151.596 88.3107 152.365 84.7644 153.1C83.1973 153.417 81.5682 153.124 80.2103 152.28C79.7217 151.979 78.5021 150.503 77.8768 150.718C77.3165 150.903 76.9612 153.937 76.3565 154.593C74.9592 155.449 73.4036 156.014 71.7828 156.254C70.162 156.495 68.5093 156.406 66.9236 155.993C66.1855 155.643 65.5247 155.149 64.9798 154.54C64.4348 153.931 64.0166 153.22 63.7497 152.447C63.4696 151.907 62.9776 150.315 62.2294 150.25C61.2967 150.172 58.5635 158.518 57.3746 154.453C57.0302 152.182 57.0938 149.868 57.5625 147.62C59.4109 125.925 46.7153 97.1722 76.4283 74.7192C80.7706 71.0294 84.3442 67.1517 90.0941 65.6109C95.6752 64.5657 101.403 64.5819 106.978 65.6587C121.601 68.2791 136.541 74.5415 143.777 88.1698C148.447 96.9706 148.714 106.544 149.568 116.236C150.159 122.912 151.775 129.591 151.809 136.318C151.809 137.924 152.072 141.74 150.689 142.994C150.224 143.417 149.708 142.157 149.568 141.897C149.168 141.152 147.539 136.694 146.37 137.114C144.853 137.657 145.366 141.784 143.521 142.881C141.57 143.751 139.495 144.311 137.371 144.541C133.012 145.498 128.57 146.045 124.108 146.175L122.844 145.778C125.896 141.657 127.928 136.872 128.775 131.815L130.972 132.211C136.367 131.696 143.862 122.963 137.931 118.388C137.097 117.811 136.148 117.418 135.15 117.237C134.151 117.055 133.125 117.089 132.141 117.336C131.86 117.404 130.179 117.732 130.179 118.293L129.571 118.317C129.37 114.435 128.894 110.573 128.147 106.759L128.427 105.638C115.311 102.106 101.495 102.106 88.379 105.638C84.0005 106.783 79.7351 108.323 75.6356 110.24Z" fill="#096B72"/>
<path d="M130.2 118.311C130.2 117.751 131.881 117.426 132.161 117.354C133.146 117.108 134.171 117.074 135.17 117.256C136.169 117.437 137.117 117.829 137.952 118.406C143.883 122.985 136.387 131.714 130.993 132.23L128.796 131.833C129.592 127.382 129.858 122.848 129.592 118.338L130.2 118.311Z" fill="white"/>
<path d="M121.158 147.678C113.816 154.91 101.684 154.705 92.4148 150.179C80.1361 144.169 78.4074 134.121 76.9793 120.568C75.7698 109.027 75.2164 110.462 76.0705 110.062C92.4812 102.534 111.006 100.973 128.445 105.648L128.165 106.769C130.792 120.175 130.809 138.18 121.158 147.678Z" fill="white"/>
<path d="M121.161 147.682L121.957 148.43C121.697 150.813 121.673 153.216 121.885 155.604C112.757 159.121 102.76 159.708 93.2825 157.285C93.1151 155.235 92.6334 153.22 91.8579 151.31L92.4182 150.189C101.779 154.798 114.014 154.832 121.161 147.682Z" fill="white"/>
<path d="M79.3177 134.54L78.2177 134.882C72.987 134.906 66.7486 132.569 67.1039 126.29C67.3123 122.6 72.7069 118.562 76.3283 120.663L76.9809 120.591C77.3501 125.3 78.132 129.968 79.3177 134.54Z" fill="white"/>
<path d="M83.5764 113.743C84.6553 112.693 85.955 111.897 87.3807 111.414C88.8063 110.93 90.3219 110.771 91.8169 110.948C92.1523 110.987 92.4918 110.927 92.7926 110.773C93.0935 110.62 93.3423 110.381 93.5077 110.087C93.6732 109.792 93.7479 109.456 93.7224 109.119C93.6969 108.782 93.5724 108.461 93.3646 108.195C93.2256 108.018 93.0534 107.871 92.8576 107.762C92.6618 107.652 92.4463 107.582 92.2235 107.556C90.3737 107.332 88.4978 107.495 86.7138 108.032C84.9299 108.57 83.2765 109.471 81.8579 110.678C81.0243 111.382 79.6304 112.564 80.6997 113.938C80.9724 114.262 81.3516 114.478 81.7692 114.547C82.1869 114.617 82.6157 114.535 82.9785 114.317C83.2203 114.175 83.4251 113.979 83.5764 113.743Z" fill="#096B72"/>
<path d="M112.353 109.701C112.714 109.832 113.104 109.862 113.481 109.79C113.858 109.717 114.208 109.544 114.495 109.288C117.671 108.615 120.984 109.154 123.784 110.798C124.079 110.977 124.42 111.065 124.764 111.049C125.108 111.034 125.44 110.917 125.718 110.713C125.94 110.546 126.118 110.327 126.237 110.076C126.356 109.824 126.411 109.548 126.399 109.27C126.386 108.992 126.306 108.722 126.166 108.482C126.025 108.242 125.828 108.04 125.591 107.894C123.671 106.705 121.509 105.957 119.264 105.705C117.019 105.454 114.745 105.704 112.609 106.439C112.251 106.518 111.929 106.711 111.689 106.987C111.449 107.264 111.303 107.61 111.275 107.975C111.246 108.341 111.335 108.705 111.529 109.016C111.723 109.327 112.012 109.567 112.353 109.701Z" fill="#096B72"/>
<path d="M85.3074 116.709C83.2336 117.659 80.0802 119.955 81.3067 121.892C81.5013 122.177 81.7738 122.401 82.0918 122.536C82.4098 122.671 82.7598 122.712 83.1003 122.654C83.4416 122.595 83.7584 122.438 84.0125 122.203C84.2666 121.968 84.447 121.664 84.5319 121.328C85.6457 120.17 87.1347 119.445 88.7334 119.282C90.332 119.12 91.9365 119.53 93.2609 120.44C93.4453 120.568 93.6531 120.658 93.8724 120.706C94.0917 120.753 94.3182 120.757 94.539 120.717C94.7598 120.677 94.9706 120.594 95.1593 120.473C95.348 120.351 95.5109 120.194 95.6388 120.01C95.7666 119.825 95.857 119.617 95.9045 119.398C95.9521 119.179 95.956 118.952 95.916 118.731C95.876 118.511 95.793 118.3 95.6716 118.111C95.5501 117.922 95.3927 117.76 95.2083 117.632C93.7732 116.647 92.1104 116.046 90.3777 115.884C88.6449 115.723 86.8997 116.007 85.3074 116.709Z" fill="#096B72"/>
<path d="M115.25 115.929C114.531 116.529 113.862 117.189 113.252 117.9C112.942 118.1 112.706 118.394 112.577 118.739C112.449 119.085 112.436 119.462 112.539 119.816C112.643 120.169 112.858 120.48 113.153 120.701C113.447 120.922 113.806 121.042 114.174 121.043C115.476 121.043 116.268 119.495 117.081 118.812C118.174 118.112 119.447 117.748 120.745 117.765C122.042 117.782 123.305 118.179 124.379 118.908C124.755 119.162 125.216 119.257 125.662 119.172C126.107 119.086 126.501 118.827 126.755 118.452C127.01 118.076 127.105 117.615 127.019 117.169C126.934 116.723 126.675 116.33 126.299 116.075C124.673 114.973 122.76 114.372 120.797 114.346C118.833 114.32 116.905 114.87 115.25 115.929Z" fill="#096B72"/>
<path d="M99.8326 131.443C100.711 132.224 101.776 132.766 102.925 133.017C104.074 133.269 105.267 133.221 106.392 132.878C106.617 132.83 106.83 132.738 107.019 132.607C107.208 132.477 107.369 132.309 107.492 132.116C107.614 131.921 107.695 131.704 107.732 131.478C107.768 131.251 107.759 131.02 107.704 130.797C107.651 130.573 107.552 130.363 107.414 130.179C107.276 129.995 107.101 129.841 106.901 129.728C106.702 129.612 106.482 129.539 106.253 129.511C106.025 129.483 105.793 129.502 105.572 129.567C104.574 129.819 103.522 129.753 102.562 129.379C102.305 128.985 101.941 128.671 101.513 128.474C101.054 128.336 100.56 128.372 100.126 128.576C99.8697 128.705 99.6494 128.897 99.4859 129.133C99.3224 129.37 99.2207 129.643 99.1903 129.929C99.1624 130.215 99.2065 130.504 99.3187 130.769C99.4309 131.034 99.6075 131.267 99.8326 131.446V131.443Z" fill="#096B72"/>
<path d="M98.5907 140.534C100.887 141.174 103.296 141.304 105.648 140.914C108 140.525 110.238 139.625 112.205 138.279C112.406 138.165 112.582 138.011 112.72 137.826C112.858 137.64 112.956 137.428 113.008 137.203C113.087 136.865 113.062 136.51 112.936 136.186C112.809 135.863 112.588 135.585 112.301 135.389C112.013 135.194 111.671 135.091 111.323 135.096C110.975 135.101 110.636 135.213 110.354 135.416C108.809 136.482 107.052 137.201 105.202 137.522C103.353 137.843 101.457 137.76 99.643 137.278C99.3913 137.106 99.0991 137.003 98.7953 136.979C98.4915 136.954 98.1866 137.009 97.9107 137.139C97.6347 137.268 97.3972 137.467 97.2217 137.716C97.0462 137.965 96.9387 138.256 96.9098 138.559C96.8517 139.226 97.108 140.114 98.5907 140.534Z" fill="#096B72"/>
<path d="M107.547 142.406C106.946 142.68 106.287 142.806 105.624 142.769C105.155 142.619 104.677 142.499 104.192 142.41C103.97 142.365 103.742 142.365 103.52 142.409C103.298 142.454 103.086 142.542 102.899 142.669C102.711 142.795 102.55 142.958 102.426 143.147C102.302 143.337 102.217 143.549 102.175 143.772C102.134 143.994 102.137 144.223 102.185 144.444C102.233 144.666 102.324 144.875 102.453 145.061C102.583 145.247 102.748 145.405 102.939 145.527C103.13 145.648 103.344 145.73 103.567 145.768C103.967 145.84 104.363 145.946 104.749 146.076C106.155 146.313 107.601 146.127 108.9 145.539C109.211 145.406 109.475 145.182 109.658 144.897C109.84 144.612 109.934 144.279 109.925 143.94C109.921 143.659 109.847 143.383 109.71 143.138C109.573 142.892 109.377 142.684 109.141 142.532C108.904 142.379 108.634 142.288 108.353 142.266C108.073 142.243 107.791 142.29 107.534 142.403H107.547V142.406Z" fill="#096B72"/>
<path d="M139.528 110.241C139.589 110.457 139.691 110.66 139.83 110.836C139.968 111.013 140.141 111.16 140.337 111.27C140.532 111.38 140.748 111.45 140.971 111.476C141.194 111.502 141.42 111.484 141.636 111.423C142.072 111.298 142.441 111.007 142.665 110.613C142.884 110.217 142.939 109.751 142.818 109.315C140.44 100.826 136.409 92.8904 130.956 85.9636C130.403 85.0958 129.778 84.1118 128.633 84.1118C128.263 84.11 127.902 84.2291 127.605 84.4511C127.308 84.6731 127.092 84.9858 126.99 85.3418C126.888 85.6972 126.904 86.0757 127.035 86.4215C127.165 86.7672 127.403 87.0619 127.714 87.2618C133.143 94.0582 137.16 101.871 139.528 110.241Z" fill="#195D62"/>
<path d="M141.858 104.122C141.878 104.469 142.004 104.802 142.217 105.077C142.431 105.351 142.722 105.554 143.054 105.66C143.385 105.765 143.741 105.766 144.073 105.662C144.405 105.558 144.697 105.354 144.909 105.079C145.05 104.896 145.154 104.687 145.213 104.465C145.272 104.242 145.286 104.009 145.254 103.78C144.95 100.833 144.188 97.9517 142.996 95.2393C142.866 94.9202 142.644 94.6473 142.358 94.4561C142.072 94.2648 141.734 94.1639 141.39 94.1666C141.045 94.1686 140.709 94.276 140.427 94.4745C140.145 94.673 139.93 94.9529 139.812 95.2769C139.733 95.4911 139.697 95.7188 139.706 95.9469C139.715 96.175 139.77 96.399 139.866 96.6059C140.912 98.994 141.585 101.529 141.858 104.122Z" fill="#195D62"/>
<path d="M84.1288 287.781C90.7636 285.281 100.292 283.135 107.559 279.944C108.98 281.188 107.952 279.227 130.62 280.785C143.169 281.639 163.418 283.087 173.982 274.471C183.63 266.613 180.91 253.169 178.912 243.33C176.8 234.115 176.239 224.612 177.251 215.212C178.041 207.067 177.77 198.853 176.445 190.778C174.457 181.041 170.203 174.126 163.712 170.159C149.161 162.404 141.922 167.426 124.047 159.534C123.616 155.621 123.429 151.684 123.486 147.747C123.698 147.85 123.934 147.901 124.17 147.898C128.678 147.775 133.165 147.223 137.569 146.251C139.941 145.993 142.256 145.356 144.426 144.365C145.104 143.834 145.666 143.169 146.077 142.412C146.488 141.656 146.74 140.823 146.818 139.965C148.089 142.472 148.468 144.44 150.142 144.772C150.449 144.81 150.761 144.786 151.059 144.7C151.357 144.615 151.634 144.469 151.874 144.273C153.722 142.582 153.582 139.059 153.548 136.319C153.469 129.391 151.871 122.742 151.3 116.104C150.436 106.012 150.039 96.2886 145.318 87.3853C138.765 75.0416 125.253 66.7327 107.354 64.003C101.527 62.798 95.5151 62.7887 89.684 63.9756C83.589 65.6053 79.8001 69.6299 75.4134 73.3709C70.4905 77.0047 66.1962 81.4203 62.7008 86.4423C52.6632 101.184 54.3953 118.574 55.7414 135.171C56.944 150.013 54.6516 147.997 55.7414 154.96C56.2641 156.743 57.2549 157.228 57.9963 157.293C59.8651 157.457 61.0233 155.441 62.219 153.251C62.9741 155.199 64.4705 156.777 66.3769 157.635C69.0554 158.557 75.4305 158.188 77.617 155.783C78.1671 155.042 78.5395 154.184 78.7035 153.275C79.5958 153.988 80.6349 154.493 81.7461 154.756C82.8573 155.019 84.0129 155.033 85.1299 154.796C87.0089 154.392 88.8879 153.866 90.7499 153.282C91.341 155.814 91.7612 158.386 92.0072 160.976C91.0062 160.805 90.6987 161.256 86.6263 163.367C82.6243 165.65 78.2775 167.265 73.7564 168.151C60.5757 170.269 49.1989 168.082 40.6167 178.656C38.9164 180.744 37.4894 183.04 36.37 185.489C32.0175 195.055 34.5388 204.655 36.9611 213.965C41.0134 231.167 46.1308 248.099 52.284 264.666C55.1743 272.213 58.4336 280.774 64.6413 286.78C70.4185 292.366 76.7288 290.556 84.1288 287.781ZM100.842 156.76C98.7748 156.719 96.7224 156.4 94.7404 155.81C94.5764 154.819 94.4192 153.842 94.1801 152.787C98.3264 154.638 102.87 155.425 107.397 155.074C111.925 154.723 116.293 153.246 120.104 150.778C120.056 151.974 120.063 153.162 120.125 154.348C113.961 156.599 107.368 157.423 100.842 156.763V156.76ZM75.4339 122.11C75.7586 125.809 76.3604 129.479 77.2344 133.087C72.793 132.828 68.5532 130.935 68.806 126.367C68.9529 123.805 73.0561 120.778 75.4339 122.11ZM79.0519 123.736C77.576 109.797 77.8699 114.348 77.5795 111.301C92.9455 104.452 110.156 102.922 126.49 106.951C127.2 110.74 127.665 114.57 127.88 118.42C128.358 127.928 126.855 139.808 119.95 146.476C113.234 153.193 101.744 152.886 93.1585 148.646C90.1742 147.276 87.5318 145.259 85.4229 142.742C83.3141 140.225 81.7914 137.27 80.9652 134.092C80.057 130.695 79.4173 127.233 79.0519 123.736ZM131.303 119.579C131.447 119.469 131.618 119.401 131.71 119.237C136.24 117.843 139.158 120.655 138.218 123.911C137.635 125.563 136.641 127.04 135.329 128.203C134.018 129.366 132.433 130.177 130.723 130.559C131.249 126.924 131.443 123.249 131.303 119.579ZM84.4466 151.451C83.3182 151.677 82.1459 151.474 81.1599 150.88C80.4083 150.323 79.069 148.567 77.3505 149.121C75.7038 149.667 75.6423 152.083 75.1059 153.473C72.8196 154.665 70.1888 155.02 67.6683 154.478C67.0562 154.154 66.5157 153.709 66.079 153.172C65.6423 152.634 65.3183 152.014 65.1264 151.348C64.6994 150.368 64.0058 148.725 62.3727 148.571C60.6645 148.455 59.9813 150.228 58.888 152.226C59.5542 146.473 59.643 140.665 59.1476 134.895C57.067 109.213 56.5887 91.895 77.5487 76.0392C81.9013 72.3392 85.2289 68.704 90.4595 67.3033C95.8445 66.2935 101.372 66.3144 106.749 67.3648C116.493 69.1072 134.16 73.6511 142.298 88.9876C146.701 97.2862 147.043 106.412 147.897 116.405C149.117 123.866 149.865 131.396 150.128 138.953C149.124 136.856 147.788 134.854 145.83 135.537C144.218 136.107 143.818 137.809 143.466 139.295C143.342 139.999 143.138 140.687 142.858 141.345C141.004 142.163 139.034 142.687 137.019 142.896C133.339 143.685 129.6 144.174 125.84 144.358C127.86 141.065 129.307 137.454 130.121 133.678C132.222 134.942 139.718 131.027 141.498 124.864C143.206 118.981 137.921 114.027 131.085 115.868C130.863 113.135 130.524 110.402 130.036 107.686C130.429 107.634 130.792 107.446 131.062 107.155C131.332 106.865 131.492 106.489 131.516 106.094C131.539 105.698 131.424 105.306 131.19 104.986C130.956 104.665 130.618 104.436 130.234 104.338C124.922 102.87 119.478 101.932 113.982 101.536C113.905 101.314 113.782 101.11 113.62 100.938C111.079 98.2975 108.966 95.2763 107.357 91.9838C106.086 89.5923 103.736 90.7197 103.907 92.428C104.464 93.9859 105.208 95.4686 106.124 96.842C107.142 98.4205 108.27 99.934 109.489 101.365C108.618 101.365 107.747 101.365 106.876 101.383C106.822 100.943 106.599 100.543 106.254 100.265C103.116 97.6931 100.568 94.4761 98.7821 90.8325C97.7854 89.0325 96.9837 87.1313 96.3905 85.1612C96.3432 84.9363 96.2506 84.7235 96.1185 84.5355C95.9863 84.3476 95.8174 84.1885 95.6218 84.0679C95.3288 83.8822 94.9858 83.7912 94.6393 83.8071C94.2927 83.823 93.9595 83.945 93.6847 84.1567C93.4092 84.3663 93.2039 84.6545 93.0959 84.9834C92.9879 85.3122 92.9823 85.6661 93.08 85.9982C93.7293 88.2122 94.6207 90.3478 95.738 92.3665C97.4572 95.819 99.7832 98.9343 102.605 101.564C99.5725 101.784 96.5553 102.18 93.5685 102.749C90.18 96.4793 88.105 89.5846 87.4701 82.4861C87.4701 82.3836 87.4975 82.2674 87.5145 82.1444C88.0714 78.6494 83.2747 77.1564 84.0981 82.879C84.3919 84.9596 84.8121 86.9787 85.1469 88.9705C85.951 94.0693 87.6329 98.9901 90.1179 103.514C89.4004 103.685 88.6796 103.822 87.9689 104.013C82.039 105.662 76.2907 107.906 70.8114 110.709C68.946 111.782 67.5966 112.551 68.0475 114.064C68.1346 114.318 68.2761 114.55 68.462 114.744C68.6479 114.937 68.8738 115.088 69.124 115.185C69.3741 115.282 69.6425 115.324 69.9103 115.307C70.1782 115.29 70.4391 115.214 70.6748 115.086C70.991 114.913 71.2489 114.65 71.4161 114.331C72.3368 113.751 73.3021 113.245 74.3031 112.817C74.7233 114.679 74.9761 116.576 75.0581 118.485C72.7775 118.317 70.5175 119.017 68.7309 120.444C66.9443 121.871 65.763 123.921 65.4237 126.183C65.0376 133.094 71.3376 136.579 78.1637 136.579H78.2218C79.4995 140.468 81.6862 143.997 84.6003 146.873C85.984 148.13 87.4872 149.254 89.0895 150.221C87.5248 150.665 85.9737 151.119 84.4466 151.451ZM55.4784 263.436C49.3656 246.988 44.2868 230.175 40.2716 213.094C37.0192 200.614 35.0137 190.966 43.2679 180.822C50.8388 171.516 61.0984 173.668 74.3577 171.523C80.7054 170.056 86.7801 167.592 92.3557 164.222C92.5128 166.029 92.6427 167.87 92.7178 169.838C92.7371 170.279 92.9254 170.695 93.2435 171C93.5616 171.306 93.9851 171.477 94.426 171.478H94.4944C94.9457 171.46 95.3716 171.265 95.679 170.934C95.9863 170.603 96.15 170.163 96.1343 169.712C96.025 166.295 95.738 162.886 95.2768 159.497C96.6058 159.78 97.9518 159.975 99.3082 160.067C99.1339 163.439 99.2501 166.818 99.6498 170.173C99.6747 170.396 99.7433 170.612 99.8516 170.808C99.96 171.005 100.106 171.178 100.281 171.318C100.457 171.458 100.658 171.562 100.873 171.625C101.089 171.687 101.314 171.706 101.537 171.681C101.76 171.657 101.976 171.588 102.173 171.48C102.369 171.371 102.543 171.225 102.683 171.05C102.823 170.875 102.927 170.674 102.989 170.458C103.051 170.243 103.071 170.017 103.046 169.794C102.667 166.636 102.56 163.452 102.725 160.276C103.599 160.323 104.477 160.409 105.352 160.409C105.694 160.409 106.035 160.368 106.377 160.361C106.377 163.583 106.544 168.342 106.879 171.519C106.94 171.956 107.168 172.352 107.516 172.623C107.863 172.894 108.303 173.019 108.741 172.971C109.178 172.926 109.581 172.715 109.867 172.381C110.152 172.047 110.298 171.616 110.275 171.178C109.95 168.103 109.763 162.671 109.804 160.207C111.047 160.091 112.284 159.9 113.514 159.688C113.955 162.78 114.142 165.906 114.084 169.029C114.082 169.253 114.125 169.475 114.209 169.683C114.293 169.891 114.417 170.081 114.574 170.241C114.731 170.401 114.918 170.529 115.125 170.616C115.331 170.704 115.553 170.75 115.777 170.752C116.002 170.754 116.224 170.712 116.432 170.628C116.64 170.544 116.83 170.42 116.99 170.263C117.15 170.106 117.277 169.918 117.365 169.712C117.453 169.505 117.499 169.284 117.501 169.059C117.56 165.677 117.346 162.295 116.859 158.947C118.061 158.639 119.25 158.284 120.425 157.884C120.494 158.54 120.548 159.193 120.644 159.866C120.49 160.17 120.43 160.514 120.474 160.853C120.518 161.192 120.663 161.51 120.89 161.765C121.184 163.791 121.543 165.728 121.935 167.737C121.999 168.07 122.16 168.377 122.398 168.618C122.636 168.859 122.941 169.023 123.273 169.091C123.605 169.158 123.95 169.124 124.263 168.994C124.576 168.865 124.843 168.645 125.031 168.362C125.283 167.986 125.376 167.526 125.29 167.081C125.29 167.081 124.826 164.69 124.607 163.446C128.106 164.901 131.713 166.087 135.396 166.989C146.117 168.936 152.427 168.045 162.014 173.139C167.576 176.555 171.307 182.705 173.094 191.475C175.919 205.277 172.458 218.841 173.726 233.156C175.362 247.266 182.151 263.405 171.819 271.82C159.4 281.95 131.847 276.487 114.406 276.705C129.653 269.223 135.642 265.011 148.229 261.085C150.892 260.672 153.31 259.291 155.021 257.208C157.238 253.497 153.493 249.507 149.435 248.212C143.654 246.763 137.626 246.606 131.778 247.751C114.05 249.766 100.217 248.195 80.9959 255.209C71.5938 233.856 68.905 215.294 66.9303 210.47C67.0379 210.039 66.9723 209.583 66.7474 209.2C66.5226 208.817 66.1565 208.537 65.7278 208.42C65.3901 208.339 65.0374 208.346 64.7027 208.438C64.3681 208.531 64.0625 208.707 63.8145 208.95C63.5237 209.364 63.3641 209.856 63.3568 210.361C63.3495 210.867 63.4947 211.364 63.7735 211.786C64.0161 212.387 63.1757 208.56 67.7161 226.599C70.2469 236.833 73.6308 246.836 77.8323 256.504C76.6399 257.074 75.4613 257.679 74.3338 258.359C74.1361 258.471 73.9633 258.622 73.8259 258.803C73.6884 258.984 73.5893 259.191 73.5344 259.411C73.4753 259.631 73.4611 259.86 73.4926 260.085C73.5241 260.31 73.6007 260.526 73.7177 260.721C73.8348 260.916 73.9898 261.085 74.1738 261.219C74.3577 261.353 74.5667 261.448 74.7882 261.499C75.0089 261.552 75.238 261.56 75.4621 261.524C75.6862 261.488 75.9007 261.407 76.0933 261.287C90.4015 252.664 112.561 252.848 127.849 251.601C135.243 250.983 141.802 249.363 148.382 251.471C149.974 251.98 151.327 253.057 152.181 254.495C152.783 256.145 149.626 257.081 148.065 257.57C132.178 262.51 128.488 266.326 107.491 276.23C99.8651 279.831 90.6235 281.697 82.916 284.597C76.8654 286.862 71.6416 288.82 66.9918 284.338C61.3581 278.837 58.3618 271.007 55.4784 263.436Z" fill="#096B72"/>
</svg>
